<svg xmlns="http://www.w3.org/2000/svg" width="25" height="25" viewBox="0 0 25 25">
  <path d="M12.5 0a12.5 12.5 0 0 0-12.5 12.5c0 6.903 5.597 12.5 12.5 12.5s12.5-5.597 12.5-12.5A12.5 12.5 0 0 0 12.5 0zm0 23.897C6.551 23.897 1.103 18.449 1.103 12.5S6.551 1.103 12.5 1.103 23.897 6.551 23.897 12.5 18.449 23.897 12.5 23.897z" fill="#bfbfbf"/>
  <rect x="4.135" y="9.6" width="16.83" height="2.2" fill="#bfbfbf"/>
  <rect x="4.135" y="13.997" width="16.83" height="2.2" fill="#bfbfbf"/>
  <rect x="4.135" y="18.395" width="16.83" height="2.2" fill="#bfbfbf"/>
</svg>

